<mxfile host="app.diagrams.net" modified="2022-02-23T20:57:10.792Z" agent="5.0 (Windows NT 10.0; Win64; x64) AppleWebKit/537.36 (KHTML, like Gecko) Chrome/98.0.4758.102 Safari/537.36" etag="g6ozuWpftKyh8_eEhi2i" version="16.6.3" type="github">
  <diagram id="jYjJDJiM_AItDhbpvaCf" name="Page-1">
    <mxGraphModel dx="964" dy="551" grid="1" gridSize="10" guides="1" tooltips="1" connect="1" arrows="1" fold="1" page="1" pageScale="1" pageWidth="1169" pageHeight="827" math="0" shadow="0">
      <root>
        <mxCell id="0" />
        <mxCell id="1" parent="0" />
        <mxCell id="9zoumvwDFqQen2PYw_1x-87" style="edgeStyle=orthogonalEdgeStyle;rounded=0;orthogonalLoop=1;jettySize=auto;html=1;exitX=0.5;exitY=1;exitDx=0;exitDy=0;entryX=0.5;entryY=0;entryDx=0;entryDy=0;" edge="1" parent="1" source="9zoumvwDFqQen2PYw_1x-49" target="9zoumvwDFqQen2PYw_1x-74">
          <mxGeometry relative="1" as="geometry" />
        </mxCell>
        <mxCell id="9zoumvwDFqQen2PYw_1x-49" value="" style="ellipse;html=1;shape=startState;fillColor=#000000;strokeColor=#000000;" vertex="1" parent="1">
          <mxGeometry x="170" y="190" width="30" height="30" as="geometry" />
        </mxCell>
        <mxCell id="9zoumvwDFqQen2PYw_1x-52" value="&lt;p style=&quot;margin: 0px ; margin-top: 4px ; text-align: center&quot;&gt;&lt;b&gt;Apartamento&lt;/b&gt;&lt;/p&gt;&lt;hr size=&quot;1&quot;&gt;&lt;div style=&quot;height: 2px&quot;&gt;&lt;/div&gt;&lt;hr size=&quot;1&quot;&gt;&lt;div style=&quot;height: 2px&quot;&gt;&lt;/div&gt;" style="verticalAlign=top;align=left;overflow=fill;fontSize=12;fontFamily=Helvetica;html=1;strokeColor=#000000;" vertex="1" parent="1">
          <mxGeometry x="820" y="210" width="140" height="60" as="geometry" />
        </mxCell>
        <mxCell id="9zoumvwDFqQen2PYw_1x-53" style="edgeStyle=orthogonalEdgeStyle;rounded=0;orthogonalLoop=1;jettySize=auto;html=1;exitX=0.25;exitY=0.5;exitDx=0;exitDy=0;exitPerimeter=0;entryX=0.5;entryY=0;entryDx=0;entryDy=0;" edge="1" parent="1" source="9zoumvwDFqQen2PYw_1x-57">
          <mxGeometry relative="1" as="geometry">
            <Array as="points">
              <mxPoint x="426" y="360" />
              <mxPoint x="235" y="360" />
            </Array>
            <mxPoint x="235" y="430" as="targetPoint" />
          </mxGeometry>
        </mxCell>
        <mxCell id="9zoumvwDFqQen2PYw_1x-79" value="Elevador é solicitado no andar atual" style="edgeLabel;html=1;align=center;verticalAlign=middle;resizable=0;points=[];" vertex="1" connectable="0" parent="9zoumvwDFqQen2PYw_1x-53">
          <mxGeometry x="0.5497" y="-2" relative="1" as="geometry">
            <mxPoint x="90" y="2" as="offset" />
          </mxGeometry>
        </mxCell>
        <mxCell id="9zoumvwDFqQen2PYw_1x-55" style="edgeStyle=orthogonalEdgeStyle;rounded=0;orthogonalLoop=1;jettySize=auto;html=1;entryX=0.5;entryY=0;entryDx=0;entryDy=0;exitX=0.672;exitY=0.394;exitDx=0;exitDy=0;exitPerimeter=0;" edge="1" parent="1" source="9zoumvwDFqQen2PYw_1x-57" target="9zoumvwDFqQen2PYw_1x-80">
          <mxGeometry relative="1" as="geometry">
            <Array as="points">
              <mxPoint x="479" y="330" />
              <mxPoint x="480" y="330" />
            </Array>
            <mxPoint x="490" y="290" as="sourcePoint" />
            <mxPoint x="472" y="390" as="targetPoint" />
          </mxGeometry>
        </mxCell>
        <mxCell id="9zoumvwDFqQen2PYw_1x-81" value="Elevador é solicitado em algum andar&lt;br&gt;acima" style="edgeLabel;html=1;align=center;verticalAlign=middle;resizable=0;points=[];" vertex="1" connectable="0" parent="9zoumvwDFqQen2PYw_1x-55">
          <mxGeometry x="0.2088" y="2" relative="1" as="geometry">
            <mxPoint x="9" y="16" as="offset" />
          </mxGeometry>
        </mxCell>
        <mxCell id="9zoumvwDFqQen2PYw_1x-85" style="edgeStyle=orthogonalEdgeStyle;rounded=0;orthogonalLoop=1;jettySize=auto;html=1;exitX=0.75;exitY=0.5;exitDx=0;exitDy=0;exitPerimeter=0;" edge="1" parent="1" source="9zoumvwDFqQen2PYw_1x-57" target="9zoumvwDFqQen2PYw_1x-84">
          <mxGeometry relative="1" as="geometry">
            <Array as="points">
              <mxPoint x="489" y="330" />
              <mxPoint x="700" y="330" />
            </Array>
          </mxGeometry>
        </mxCell>
        <mxCell id="9zoumvwDFqQen2PYw_1x-86" value="Elevador é solicitado em algum andar&lt;br&gt;abaixo" style="edgeLabel;html=1;align=center;verticalAlign=middle;resizable=0;points=[];" vertex="1" connectable="0" parent="9zoumvwDFqQen2PYw_1x-85">
          <mxGeometry x="0.7997" y="1" relative="1" as="geometry">
            <mxPoint x="-1" as="offset" />
          </mxGeometry>
        </mxCell>
        <mxCell id="9zoumvwDFqQen2PYw_1x-57" value="" style="shape=line;html=1;strokeWidth=6;strokeColor=#000000;" vertex="1" parent="1">
          <mxGeometry x="395" y="285" width="125" height="10" as="geometry" />
        </mxCell>
        <mxCell id="9zoumvwDFqQen2PYw_1x-64" value="&lt;p style=&quot;margin: 0px ; margin-top: 4px ; text-align: center&quot;&gt;&lt;b&gt;Apartamento disponível&lt;/b&gt;&lt;/p&gt;&lt;hr size=&quot;1&quot;&gt;&lt;div style=&quot;height: 2px&quot;&gt;&lt;/div&gt;&lt;hr size=&quot;1&quot;&gt;&lt;div style=&quot;height: 2px&quot;&gt;&lt;/div&gt;" style="verticalAlign=top;align=left;overflow=fill;fontSize=12;fontFamily=Helvetica;html=1;strokeColor=#000000;" vertex="1" parent="1">
          <mxGeometry x="1000" y="175" width="140" height="60" as="geometry" />
        </mxCell>
        <mxCell id="9zoumvwDFqQen2PYw_1x-70" value="" style="ellipse;html=1;shape=endState;fillColor=#000000;strokeColor=#000000;" vertex="1" parent="1">
          <mxGeometry x="940" y="700" width="30" height="30" as="geometry" />
        </mxCell>
        <mxCell id="9zoumvwDFqQen2PYw_1x-75" style="edgeStyle=orthogonalEdgeStyle;rounded=0;orthogonalLoop=1;jettySize=auto;html=1;exitX=1;exitY=0.5;exitDx=0;exitDy=0;entryX=0.503;entryY=0.512;entryDx=0;entryDy=0;entryPerimeter=0;" edge="1" parent="1" source="9zoumvwDFqQen2PYw_1x-74" target="9zoumvwDFqQen2PYw_1x-57">
          <mxGeometry relative="1" as="geometry">
            <Array as="points">
              <mxPoint x="337" y="300" />
              <mxPoint x="337" y="250" />
              <mxPoint x="458" y="250" />
            </Array>
          </mxGeometry>
        </mxCell>
        <mxCell id="9zoumvwDFqQen2PYw_1x-74" value="&lt;p style=&quot;margin: 0px ; margin-top: 4px ; text-align: center&quot;&gt;&lt;b&gt;Elevador estacionado&lt;/b&gt;&lt;/p&gt;&lt;hr size=&quot;1&quot;&gt;&lt;div style=&quot;height: 2px&quot;&gt;&lt;/div&gt;&lt;hr size=&quot;1&quot;&gt;&lt;div style=&quot;height: 2px&quot;&gt;&lt;/div&gt;" style="verticalAlign=top;align=left;overflow=fill;fontSize=12;fontFamily=Helvetica;html=1;strokeColor=#000000;" vertex="1" parent="1">
          <mxGeometry x="140" y="270" width="140" height="60" as="geometry" />
        </mxCell>
        <mxCell id="9zoumvwDFqQen2PYw_1x-96" style="edgeStyle=orthogonalEdgeStyle;rounded=0;orthogonalLoop=1;jettySize=auto;html=1;exitX=0.5;exitY=1;exitDx=0;exitDy=0;entryX=0.503;entryY=0.533;entryDx=0;entryDy=0;entryPerimeter=0;" edge="1" parent="1" source="9zoumvwDFqQen2PYw_1x-76" target="9zoumvwDFqQen2PYw_1x-95">
          <mxGeometry relative="1" as="geometry" />
        </mxCell>
        <mxCell id="9zoumvwDFqQen2PYw_1x-76" value="&lt;p style=&quot;margin: 0px ; margin-top: 4px ; text-align: center&quot;&gt;&lt;b&gt;Elevador aberto&lt;/b&gt;&lt;/p&gt;&lt;hr size=&quot;1&quot;&gt;&lt;div style=&quot;height: 2px&quot;&gt;&lt;/div&gt;&lt;hr size=&quot;1&quot;&gt;&lt;div style=&quot;height: 2px&quot;&gt;&lt;/div&gt;" style="verticalAlign=top;align=left;overflow=fill;fontSize=12;fontFamily=Helvetica;html=1;strokeColor=#000000;" vertex="1" parent="1">
          <mxGeometry x="170" y="430" width="140" height="60" as="geometry" />
        </mxCell>
        <mxCell id="9zoumvwDFqQen2PYw_1x-91" style="edgeStyle=orthogonalEdgeStyle;rounded=0;orthogonalLoop=1;jettySize=auto;html=1;exitX=0.25;exitY=1;exitDx=0;exitDy=0;entryX=0.25;entryY=0.5;entryDx=0;entryDy=0;entryPerimeter=0;" edge="1" parent="1" source="9zoumvwDFqQen2PYw_1x-80" target="9zoumvwDFqQen2PYw_1x-90">
          <mxGeometry relative="1" as="geometry" />
        </mxCell>
        <mxCell id="9zoumvwDFqQen2PYw_1x-80" value="&lt;p style=&quot;margin: 0px ; margin-top: 4px ; text-align: center&quot;&gt;&lt;b&gt;Elevador subindo&lt;/b&gt;&lt;/p&gt;&lt;hr size=&quot;1&quot;&gt;&lt;div style=&quot;height: 2px&quot;&gt;&lt;/div&gt;&lt;hr size=&quot;1&quot;&gt;&lt;div style=&quot;height: 2px&quot;&gt;&lt;/div&gt;" style="verticalAlign=top;align=left;overflow=fill;fontSize=12;fontFamily=Helvetica;html=1;strokeColor=#000000;" vertex="1" parent="1">
          <mxGeometry x="410" y="430" width="140" height="60" as="geometry" />
        </mxCell>
        <mxCell id="9zoumvwDFqQen2PYw_1x-92" style="edgeStyle=orthogonalEdgeStyle;rounded=0;orthogonalLoop=1;jettySize=auto;html=1;exitX=0.25;exitY=1;exitDx=0;exitDy=0;entryX=0.75;entryY=0.5;entryDx=0;entryDy=0;entryPerimeter=0;" edge="1" parent="1" source="9zoumvwDFqQen2PYw_1x-84" target="9zoumvwDFqQen2PYw_1x-90">
          <mxGeometry relative="1" as="geometry" />
        </mxCell>
        <mxCell id="9zoumvwDFqQen2PYw_1x-84" value="&lt;p style=&quot;margin: 0px ; margin-top: 4px ; text-align: center&quot;&gt;&lt;b&gt;Elevador descendo&lt;/b&gt;&lt;/p&gt;&lt;hr size=&quot;1&quot;&gt;&lt;div style=&quot;height: 2px&quot;&gt;&lt;/div&gt;&lt;hr size=&quot;1&quot;&gt;&lt;div style=&quot;height: 2px&quot;&gt;&lt;/div&gt;" style="verticalAlign=top;align=left;overflow=fill;fontSize=12;fontFamily=Helvetica;html=1;strokeColor=#000000;" vertex="1" parent="1">
          <mxGeometry x="630" y="430" width="140" height="60" as="geometry" />
        </mxCell>
        <mxCell id="9zoumvwDFqQen2PYw_1x-93" style="edgeStyle=orthogonalEdgeStyle;rounded=0;orthogonalLoop=1;jettySize=auto;html=1;exitX=0.483;exitY=0.533;exitDx=0;exitDy=0;exitPerimeter=0;entryX=1;entryY=0.5;entryDx=0;entryDy=0;" edge="1" parent="1" source="9zoumvwDFqQen2PYw_1x-90" target="9zoumvwDFqQen2PYw_1x-76">
          <mxGeometry relative="1" as="geometry">
            <Array as="points">
              <mxPoint x="485" y="610" />
              <mxPoint x="368" y="610" />
              <mxPoint x="368" y="460" />
            </Array>
          </mxGeometry>
        </mxCell>
        <mxCell id="9zoumvwDFqQen2PYw_1x-94" value="Elevador chegou no andar&lt;br&gt;solicitado" style="edgeLabel;html=1;align=center;verticalAlign=middle;resizable=0;points=[];" vertex="1" connectable="0" parent="9zoumvwDFqQen2PYw_1x-93">
          <mxGeometry x="-0.2722" y="-1" relative="1" as="geometry">
            <mxPoint x="-12" y="-19" as="offset" />
          </mxGeometry>
        </mxCell>
        <mxCell id="9zoumvwDFqQen2PYw_1x-90" value="" style="shape=line;html=1;strokeWidth=6;strokeColor=#000000;" vertex="1" parent="1">
          <mxGeometry x="425" y="550" width="125" height="10" as="geometry" />
        </mxCell>
        <mxCell id="9zoumvwDFqQen2PYw_1x-101" style="edgeStyle=orthogonalEdgeStyle;rounded=0;orthogonalLoop=1;jettySize=auto;html=1;exitX=0.75;exitY=0.5;exitDx=0;exitDy=0;exitPerimeter=0;entryX=0.5;entryY=0;entryDx=0;entryDy=0;" edge="1" parent="1" source="9zoumvwDFqQen2PYw_1x-95" target="9zoumvwDFqQen2PYw_1x-100">
          <mxGeometry relative="1" as="geometry">
            <Array as="points">
              <mxPoint x="271" y="630" />
              <mxPoint x="420" y="630" />
            </Array>
          </mxGeometry>
        </mxCell>
        <mxCell id="9zoumvwDFqQen2PYw_1x-105" value="Destino solicitado em&lt;br&gt;andar abaixo" style="edgeLabel;html=1;align=center;verticalAlign=middle;resizable=0;points=[];" vertex="1" connectable="0" parent="9zoumvwDFqQen2PYw_1x-101">
          <mxGeometry x="-0.157" y="-1" relative="1" as="geometry">
            <mxPoint x="32" as="offset" />
          </mxGeometry>
        </mxCell>
        <mxCell id="9zoumvwDFqQen2PYw_1x-102" style="edgeStyle=orthogonalEdgeStyle;rounded=0;orthogonalLoop=1;jettySize=auto;html=1;exitX=0.25;exitY=0.5;exitDx=0;exitDy=0;exitPerimeter=0;" edge="1" parent="1" source="9zoumvwDFqQen2PYw_1x-95" target="9zoumvwDFqQen2PYw_1x-99">
          <mxGeometry relative="1" as="geometry">
            <Array as="points">
              <mxPoint x="209" y="615" />
              <mxPoint x="233" y="615" />
            </Array>
          </mxGeometry>
        </mxCell>
        <mxCell id="9zoumvwDFqQen2PYw_1x-104" value="Destino solicitado em&lt;br&gt;andar acima" style="edgeLabel;html=1;align=center;verticalAlign=middle;resizable=0;points=[];" vertex="1" connectable="0" parent="9zoumvwDFqQen2PYw_1x-102">
          <mxGeometry x="-0.725" y="1" relative="1" as="geometry">
            <mxPoint y="16" as="offset" />
          </mxGeometry>
        </mxCell>
        <mxCell id="9zoumvwDFqQen2PYw_1x-95" value="" style="shape=line;html=1;strokeWidth=6;strokeColor=#000000;" vertex="1" parent="1">
          <mxGeometry x="177.5" y="550" width="125" height="10" as="geometry" />
        </mxCell>
        <mxCell id="9zoumvwDFqQen2PYw_1x-107" style="edgeStyle=orthogonalEdgeStyle;rounded=0;orthogonalLoop=1;jettySize=auto;html=1;exitX=0.5;exitY=1;exitDx=0;exitDy=0;entryX=0.25;entryY=0.5;entryDx=0;entryDy=0;entryPerimeter=0;" edge="1" parent="1" source="9zoumvwDFqQen2PYw_1x-99" target="9zoumvwDFqQen2PYw_1x-106">
          <mxGeometry relative="1" as="geometry">
            <Array as="points">
              <mxPoint x="233" y="770" />
              <mxPoint x="590" y="770" />
              <mxPoint x="590" y="570" />
              <mxPoint x="641" y="570" />
            </Array>
          </mxGeometry>
        </mxCell>
        <mxCell id="9zoumvwDFqQen2PYw_1x-99" value="&lt;p style=&quot;margin: 0px ; margin-top: 4px ; text-align: center&quot;&gt;&lt;b&gt;Elevador subindo&lt;/b&gt;&lt;/p&gt;&lt;hr size=&quot;1&quot;&gt;&lt;div style=&quot;height: 2px&quot;&gt;&lt;/div&gt;&lt;hr size=&quot;1&quot;&gt;&lt;div style=&quot;height: 2px&quot;&gt;&lt;/div&gt;" style="verticalAlign=top;align=left;overflow=fill;fontSize=12;fontFamily=Helvetica;html=1;strokeColor=#000000;" vertex="1" parent="1">
          <mxGeometry x="162.5" y="670" width="140" height="60" as="geometry" />
        </mxCell>
        <mxCell id="9zoumvwDFqQen2PYw_1x-108" style="edgeStyle=orthogonalEdgeStyle;rounded=0;orthogonalLoop=1;jettySize=auto;html=1;exitX=0.5;exitY=1;exitDx=0;exitDy=0;entryX=0.75;entryY=0.5;entryDx=0;entryDy=0;entryPerimeter=0;" edge="1" parent="1" source="9zoumvwDFqQen2PYw_1x-100" target="9zoumvwDFqQen2PYw_1x-106">
          <mxGeometry relative="1" as="geometry">
            <Array as="points">
              <mxPoint x="420" y="750" />
              <mxPoint x="560" y="750" />
              <mxPoint x="560" y="550" />
              <mxPoint x="704" y="550" />
            </Array>
          </mxGeometry>
        </mxCell>
        <mxCell id="9zoumvwDFqQen2PYw_1x-100" value="&lt;p style=&quot;margin: 0px ; margin-top: 4px ; text-align: center&quot;&gt;&lt;b&gt;Elevador descendo&lt;/b&gt;&lt;/p&gt;&lt;hr size=&quot;1&quot;&gt;&lt;div style=&quot;height: 2px&quot;&gt;&lt;/div&gt;&lt;hr size=&quot;1&quot;&gt;&lt;div style=&quot;height: 2px&quot;&gt;&lt;/div&gt;" style="verticalAlign=top;align=left;overflow=fill;fontSize=12;fontFamily=Helvetica;html=1;strokeColor=#000000;" vertex="1" parent="1">
          <mxGeometry x="350" y="670" width="140" height="60" as="geometry" />
        </mxCell>
        <mxCell id="9zoumvwDFqQen2PYw_1x-110" style="edgeStyle=orthogonalEdgeStyle;rounded=0;orthogonalLoop=1;jettySize=auto;html=1;exitX=0.504;exitY=0.514;exitDx=0;exitDy=0;exitPerimeter=0;entryX=0.5;entryY=0;entryDx=0;entryDy=0;" edge="1" parent="1" source="9zoumvwDFqQen2PYw_1x-106" target="9zoumvwDFqQen2PYw_1x-109">
          <mxGeometry relative="1" as="geometry" />
        </mxCell>
        <mxCell id="9zoumvwDFqQen2PYw_1x-112" value="Elevador chegou ao destino" style="edgeLabel;html=1;align=center;verticalAlign=middle;resizable=0;points=[];" vertex="1" connectable="0" parent="9zoumvwDFqQen2PYw_1x-110">
          <mxGeometry x="-0.2441" relative="1" as="geometry">
            <mxPoint as="offset" />
          </mxGeometry>
        </mxCell>
        <mxCell id="9zoumvwDFqQen2PYw_1x-106" value="" style="shape=line;html=1;strokeWidth=6;strokeColor=#000000;" vertex="1" parent="1">
          <mxGeometry x="610" y="600" width="125" height="10" as="geometry" />
        </mxCell>
        <mxCell id="9zoumvwDFqQen2PYw_1x-111" style="edgeStyle=orthogonalEdgeStyle;rounded=0;orthogonalLoop=1;jettySize=auto;html=1;exitX=1;exitY=0.5;exitDx=0;exitDy=0;entryX=0.75;entryY=0;entryDx=0;entryDy=0;" edge="1" parent="1" source="9zoumvwDFqQen2PYw_1x-109" target="9zoumvwDFqQen2PYw_1x-74">
          <mxGeometry relative="1" as="geometry">
            <Array as="points">
              <mxPoint x="810" y="700" />
              <mxPoint x="810" y="210" />
              <mxPoint x="245" y="210" />
            </Array>
          </mxGeometry>
        </mxCell>
        <mxCell id="9zoumvwDFqQen2PYw_1x-109" value="&lt;p style=&quot;margin: 0px ; margin-top: 4px ; text-align: center&quot;&gt;&lt;b&gt;Elevador aberto&lt;/b&gt;&lt;/p&gt;&lt;hr size=&quot;1&quot;&gt;&lt;div style=&quot;height: 2px&quot;&gt;&lt;/div&gt;&lt;hr size=&quot;1&quot;&gt;&lt;div style=&quot;height: 2px&quot;&gt;&lt;/div&gt;" style="verticalAlign=top;align=left;overflow=fill;fontSize=12;fontFamily=Helvetica;html=1;strokeColor=#000000;" vertex="1" parent="1">
          <mxGeometry x="602.5" y="670" width="140" height="60" as="geometry" />
        </mxCell>
        <mxCell id="9zoumvwDFqQen2PYw_1x-113" style="edgeStyle=orthogonalEdgeStyle;rounded=0;orthogonalLoop=1;jettySize=auto;html=1;exitX=0;exitY=0.25;exitDx=0;exitDy=0;entryX=0;entryY=0.75;entryDx=0;entryDy=0;" edge="1" parent="1" source="9zoumvwDFqQen2PYw_1x-76" target="9zoumvwDFqQen2PYw_1x-76">
          <mxGeometry relative="1" as="geometry">
            <Array as="points">
              <mxPoint x="110" y="445" />
              <mxPoint x="110" y="475" />
            </Array>
          </mxGeometry>
        </mxCell>
        <mxCell id="9zoumvwDFqQen2PYw_1x-114" value="Enquanto há&lt;br&gt;algo na porta" style="edgeLabel;html=1;align=center;verticalAlign=middle;resizable=0;points=[];" vertex="1" connectable="0" parent="9zoumvwDFqQen2PYw_1x-113">
          <mxGeometry x="-0.1615" y="3" relative="1" as="geometry">
            <mxPoint x="-3" y="12" as="offset" />
          </mxGeometry>
        </mxCell>
      </root>
    </mxGraphModel>
  </diagram>
</mxfile>
